<?xml version="1.0" encoding="UTF-8"?>
<!DOCTYPE svg PUBLIC "-//W3C//DTD SVG 1.1//EN" "http://www.w3.org/Graphics/SVG/1.1/DTD/svg11.dtd">
<svg xmlns="http://www.w3.org/2000/svg" version="1.1" width="200px" height="200px" style="shape-rendering:geometricPrecision; text-rendering:geometricPrecision; image-rendering:optimizeQuality; fill-rule:evenodd; clip-rule:evenodd" xmlns:xlink="http://www.w3.org/1999/xlink">
<g><path style="opacity:0.827" fill="#90d4ff" d="M 89.5,6.5 C 92.1873,6.33591 94.854,6.50258 97.5,7C 116.76,16.7594 136.427,25.7594 156.5,34C 158.911,34.8563 160.244,36.523 160.5,39C 140.888,77.0637 120.388,114.564 99,151.5C 98.6667,164.167 98.3333,176.833 98,189.5C 97.2421,191.91 95.5754,192.91 93,192.5C 91.3419,192.325 90.0086,191.658 89,190.5C 88.6667,184.833 88.3333,179.167 88,173.5C 86.2571,177.984 84.2571,182.317 82,186.5C 79.9614,191.04 76.9614,192.04 73,189.5C 64.3333,177.5 55.6667,165.5 47,153.5C 45.8572,148.141 48.0238,145.974 53.5,147C 64.1338,153.654 74.8005,160.321 85.5,167C 86.7014,167.903 87.5348,169.069 88,170.5C 88.6667,164.833 88.6667,159.167 88,153.5C 77.5835,136.332 66.9168,119.332 56,102.5C 54.8495,100.246 54.5162,97.9129 55,95.5C 58.8717,92.9998 62.3717,90.1665 65.5,87C 55.5428,69.9173 46.5428,52.4173 38.5,34.5C 38.3898,32.626 39.0564,31.126 40.5,30C 57.1679,22.6644 73.5013,14.8311 89.5,6.5 Z M 92.5,16.5 C 109.961,24.0641 127.294,31.8974 144.5,40C 137.667,44.1667 130.833,48.3333 124,52.5C 120.861,51.9211 117.861,50.9211 115,49.5C 112.89,43.1674 110.39,37.0007 107.5,31C 105.5,30.3333 103.5,30.3333 101.5,31C 93.4212,34.4158 85.0879,36.9158 76.5,38.5C 69.9927,37.4411 63.6594,35.7744 57.5,33.5C 58,33.1667 58.5,32.8333 59,32.5C 70.1353,27.0149 81.302,21.6816 92.5,16.5 Z M 99.5,41.5 C 101.912,41.6941 102.912,43.0274 102.5,45.5C 99.4781,45.196 96.4781,44.696 93.5,44C 95.8516,43.7599 97.8516,42.9265 99.5,41.5 Z M 53.5,44.5 C 53.7352,43.9033 54.2352,43.5699 55,43.5C 74.0396,48.4033 92.873,53.9033 111.5,60C 99.4471,67.6843 87.2804,75.1843 75,82.5C 67.5668,69.9651 60.4001,57.2984 53.5,44.5 Z M 140.5,53.5 C 141.043,53.56 141.376,53.8933 141.5,54.5C 125.855,83.7908 109.688,112.791 93,141.5C 84.7509,129.337 76.7509,117.004 69,104.5C 67.6989,102.598 67.0322,100.598 67,98.5C 91.7815,83.864 116.282,68.864 140.5,53.5 Z M 69.5,168.5 C 71.8614,169.435 74.0281,170.768 76,172.5C 76.6987,174.074 76.3654,175.407 75,176.5C 72.9098,173.978 71.0765,171.312 69.5,168.5 Z"/></g>
</svg>
